<svg width="80" height="80" viewBox="0 0 80 80" fill="none" xmlns="http://www.w3.org/2000/svg">
<path d="M53.4488 7.39575H11.2293C10.5241 7.39575 9.95251 7.96736 9.95251 8.67254V70.2152C9.95251 70.9204 10.5241 71.492 11.2293 71.492H53.4488C54.154 71.492 54.7256 70.9204 54.7256 70.2152V8.67254C54.7256 7.96736 54.154 7.39575 53.4488 7.39575ZM52.172 68.9384H12.5062V9.94934H52.172V68.9384Z" fill="url(#paint0_linear_4_1236)"/>
<path d="M45.3093 18.2485H44.8354C44.1302 18.2485 43.5586 18.8201 43.5586 19.5253C43.5586 20.2305 44.1302 20.8021 44.8354 20.8021H45.3093C46.0145 20.8021 46.5861 20.2305 46.5861 19.5253C46.5863 18.8201 46.0145 18.2485 45.3093 18.2485Z" fill="url(#paint1_linear_4_1236)"/>
<path d="M39.2481 18.2485H19.3688C18.6636 18.2485 18.092 18.8201 18.092 19.5253C18.092 20.2305 18.6636 20.8021 19.3688 20.8021H39.248C39.9532 20.8021 40.5248 20.2305 40.5248 19.5253C40.5249 18.8201 39.9533 18.2485 39.2481 18.2485Z" fill="url(#paint2_linear_4_1236)"/>
<path d="M45.3093 28.2078H19.3688C18.6636 28.2078 18.092 28.7794 18.092 29.4846C18.092 30.1897 18.6636 30.7613 19.3688 30.7613H45.3093C46.0145 30.7613 46.5861 30.1897 46.5861 29.4846C46.5861 28.7794 46.0145 28.2078 45.3093 28.2078Z" fill="url(#paint3_linear_4_1236)"/>
<path d="M45.3093 38.167H19.3688C18.6636 38.167 18.092 38.7386 18.092 39.4438C18.092 40.149 18.6636 40.7206 19.3688 40.7206H45.3093C46.0145 40.7206 46.5861 40.149 46.5861 39.4438C46.5863 38.7386 46.0145 38.167 45.3093 38.167Z" fill="url(#paint4_linear_4_1236)"/>
<path d="M45.3093 48.2583H19.3688C18.6636 48.2583 18.092 48.8299 18.092 49.5351C18.092 50.2403 18.6636 50.8119 19.3688 50.8119H45.3093C46.0145 50.8119 46.5861 50.2403 46.5861 49.5351C46.5863 48.8299 46.0145 48.2583 45.3093 48.2583Z" fill="url(#paint5_linear_4_1236)"/>
<path d="M45.3093 58.2178H19.3688C18.6636 58.2178 18.092 58.7894 18.092 59.4946C18.092 60.1998 18.6636 60.7714 19.3688 60.7714H45.3093C46.0145 60.7714 46.5861 60.1998 46.5861 59.4946C46.5863 58.7894 46.0145 58.2178 45.3093 58.2178Z" fill="url(#paint6_linear_4_1236)"/>
<path d="M66.0893 21.0778V18.8233C66.0893 18.1856 65.6215 17.6587 65.0105 17.5633V13.5883C65.0105 12.8831 64.4389 12.3115 63.7338 12.3115H60.5287C59.8235 12.3115 59.2519 12.8831 59.2519 13.5883V17.5633C58.6411 17.6587 58.1732 18.1856 58.1732 18.8233V59.9017C58.1732 61.6 59.3055 63.0381 60.8544 63.5026V65.2995C60.8544 66.0046 61.426 66.5762 62.1312 66.5762C62.8364 66.5762 63.408 66.0046 63.408 65.2995V63.5026C64.9571 63.0382 66.0893 61.5999 66.0893 59.9017V23.7284C66.9139 24.0778 67.4938 24.8953 67.4938 25.8457V35.0388C67.4938 35.744 68.0654 36.3156 68.7706 36.3156C69.4758 36.3156 70.0474 35.744 70.0474 35.0388V25.8457C70.0475 23.4759 68.339 21.4986 66.0893 21.0778ZM61.8055 14.8651H62.457V17.5464H61.8055V14.8651ZM60.7267 20.1001H63.5357V50.4883H60.7267V20.1001ZM63.5357 59.9017C63.5357 60.5665 62.9949 61.1073 62.3301 61.1073H61.9323C61.2674 61.1073 60.7267 60.5665 60.7267 59.9017V53.0421H63.5357V59.9017Z" fill="url(#paint7_linear_4_1236)"/>
<defs>
<linearGradient id="paint0_linear_4_1236" x1="23.8551" y1="71.2504" x2="33.9707" y2="6.86228" gradientUnits="userSpaceOnUse">
<stop stop-color="#188DC1"/>
<stop offset="1" stop-color="#06BFE7"/>
</linearGradient>
<linearGradient id="paint1_linear_4_1236" x1="44.4987" y1="20.7925" x2="44.7399" y2="18.1863" gradientUnits="userSpaceOnUse">
<stop stop-color="#188DC1"/>
<stop offset="1" stop-color="#06BFE7"/>
</linearGradient>
<linearGradient id="paint2_linear_4_1236" x1="25.0576" y1="20.7925" x2="25.0905" y2="18.1644" gradientUnits="userSpaceOnUse">
<stop stop-color="#188DC1"/>
<stop offset="1" stop-color="#06BFE7"/>
</linearGradient>
<linearGradient id="paint3_linear_4_1236" x1="26.9397" y1="30.7517" x2="26.9656" y2="28.1235" gradientUnits="userSpaceOnUse">
<stop stop-color="#188DC1"/>
<stop offset="1" stop-color="#06BFE7"/>
</linearGradient>
<linearGradient id="paint4_linear_4_1236" x1="26.9397" y1="40.711" x2="26.9656" y2="38.0827" gradientUnits="userSpaceOnUse">
<stop stop-color="#188DC1"/>
<stop offset="1" stop-color="#06BFE7"/>
</linearGradient>
<linearGradient id="paint5_linear_4_1236" x1="26.9397" y1="50.8023" x2="26.9656" y2="48.174" gradientUnits="userSpaceOnUse">
<stop stop-color="#188DC1"/>
<stop offset="1" stop-color="#06BFE7"/>
</linearGradient>
<linearGradient id="paint6_linear_4_1236" x1="26.9397" y1="60.7617" x2="26.9656" y2="58.1335" gradientUnits="userSpaceOnUse">
<stop stop-color="#188DC1"/>
<stop offset="1" stop-color="#06BFE7"/>
</linearGradient>
<linearGradient id="paint7_linear_4_1236" x1="61.8602" y1="66.3717" x2="84.2437" y2="21.7401" gradientUnits="userSpaceOnUse">
<stop stop-color="#188DC1"/>
<stop offset="1" stop-color="#06BFE7"/>
</linearGradient>
</defs>
</svg>
