<svg width="80" height="81" viewBox="0 0 80 81" fill="none" xmlns="http://www.w3.org/2000/svg">
<path d="M58.9669 54.8777C58.3851 54.8777 57.9137 55.3491 57.9137 55.9309V71.193H44.2128C43.631 71.193 43.1596 71.6644 43.1596 72.2462C43.1596 72.828 43.631 73.2994 44.2128 73.2994H58.9669C59.5487 73.2994 60.0201 72.828 60.0201 72.2462V55.9309C60.0201 55.3492 59.5487 54.8777 58.9669 54.8777Z" fill="url(#paint0_linear_6_11)"/>
<path d="M63.8193 51.3129L59.939 42.0006C59.7756 41.6081 59.3919 41.3525 58.9669 41.3525H21.0332C20.6081 41.3525 20.2244 41.6081 20.061 42.0006L16.1807 51.3129C16.0452 51.6379 16.0812 52.0093 16.2767 52.3022C16.472 52.5953 16.8007 52.7712 17.1529 52.7712H19.98V72.246C19.98 72.8278 20.4514 73.2992 21.0332 73.2992H40C40.5818 73.2992 41.0532 72.8278 41.0532 72.246V47.6715L42.9081 52.1232C43.0715 52.5157 43.4552 52.7712 43.8802 52.7712H62.8471C63.1993 52.7712 63.5282 52.5953 63.7234 52.3022C63.9188 52.0093 63.9548 51.6379 63.8193 51.3129ZM21.7353 43.4588H38.4202L35.4176 50.6647H18.7327L21.7353 43.4588ZM22.0863 71.1928V52.7711H36.1199C36.545 52.7711 36.9286 52.5155 37.0921 52.123L38.9468 47.6715V71.1928H22.0863ZM44.5824 50.6647L41.5798 43.4588H58.2647L61.2673 50.6647H44.5824Z" fill="url(#paint1_linear_6_11)"/>
<path d="M32.9908 31.8913L33.5732 34.2343C33.6899 34.7038 34.1114 35.0334 34.5952 35.0334H45.4047C45.8885 35.0334 46.31 34.7036 46.4267 34.2343L47.0091 31.8913C50.8972 29.4738 53.294 25.1864 53.294 20.5934C53.2941 13.263 47.3304 7.29932 40 7.29932C32.6697 7.29932 26.7059 13.263 26.7059 20.5934C26.7059 25.1864 29.1027 29.4738 32.9908 31.8913ZM40 9.4057C46.1689 9.4057 51.1877 14.4245 51.1877 20.5934C51.1877 24.5871 49.0343 28.3064 45.5677 30.2995C45.3192 30.4424 45.1397 30.6803 45.0706 30.9584L44.5813 32.927H35.4188L34.9294 30.9584C34.8603 30.6803 34.6807 30.4423 34.4323 30.2995C30.9657 28.3064 28.8123 24.5871 28.8123 20.5934C28.8123 14.4245 33.8311 9.4057 40 9.4057Z" fill="url(#paint2_linear_6_11)"/>
<path d="M45.4047 37.1396H34.5952C34.0134 37.1396 33.542 37.6111 33.542 38.1928C33.542 38.7746 34.0134 39.246 34.5952 39.246H45.4047C45.9865 39.246 46.4579 38.7746 46.4579 38.1928C46.4579 37.6111 45.9865 37.1396 45.4047 37.1396Z" fill="url(#paint3_linear_6_11)"/>
<path d="M36.8716 30.0215C36.9907 30.5006 37.4204 30.8208 37.8928 30.8208C37.9769 30.8208 38.0624 30.8107 38.1476 30.7893C38.7121 30.649 39.0559 30.0778 38.9156 29.5131L37.984 25.7652H42.0158L41.0842 29.5131C40.9439 30.0778 41.2877 30.649 41.8522 30.7893C41.9374 30.8105 42.0231 30.8208 42.1071 30.8208C42.5795 30.8208 43.0093 30.5006 43.1283 30.0215L44.3848 24.9662C44.3862 24.9607 44.3867 24.9551 44.388 24.9496C44.3926 24.9294 44.3966 24.9089 44.4001 24.8882C44.4028 24.8722 44.4054 24.8563 44.4074 24.8405C44.4094 24.8238 44.4108 24.8069 44.412 24.7901C44.4136 24.77 44.4147 24.7499 44.4151 24.7298C44.4153 24.7239 44.416 24.718 44.416 24.7121C44.416 24.7038 44.415 24.6958 44.4147 24.6876C44.4143 24.6661 44.4133 24.6449 44.4115 24.6235C44.4102 24.6089 44.4085 24.5945 44.4068 24.58C44.4044 24.5607 44.4016 24.5417 44.3981 24.5227C44.3952 24.5063 44.3917 24.49 44.3879 24.4737C44.3841 24.4574 44.38 24.4414 44.3754 24.4254C44.3703 24.4073 44.3647 24.3896 44.3587 24.3719C44.3539 24.3581 44.349 24.3444 44.3436 24.3309C44.3363 24.3123 44.3287 24.2941 44.3205 24.276C44.3147 24.2633 44.3087 24.251 44.3025 24.2386C44.2935 24.2209 44.2842 24.2035 44.2743 24.1864C44.2671 24.1739 44.2595 24.1615 44.2518 24.1493C44.2418 24.1334 44.2314 24.118 44.2206 24.1028C44.2115 24.0898 44.2018 24.0771 44.192 24.0646C44.1816 24.0513 44.1709 24.0381 44.1598 24.0252C44.1483 24.0118 44.1364 23.9988 44.1241 23.986C44.1135 23.9748 44.1028 23.9639 44.0917 23.9533C44.0781 23.9402 44.064 23.9276 44.0497 23.9152C44.0385 23.9057 44.0273 23.8963 44.0157 23.887C44.0009 23.8752 43.9857 23.8638 43.9701 23.8529C43.9575 23.8439 43.9447 23.8353 43.9318 23.8269C43.9167 23.8172 43.9016 23.8079 43.886 23.7991C43.8708 23.7904 43.8555 23.7821 43.8399 23.7742C43.8259 23.7671 43.8116 23.7602 43.7971 23.7536C43.7788 23.7453 43.7602 23.7376 43.7413 23.7303C43.7284 23.7254 43.7156 23.7204 43.7024 23.7161C43.6817 23.7089 43.6605 23.7027 43.639 23.6969C43.6314 23.6947 43.6242 23.6919 43.6167 23.6901C43.611 23.6887 43.6054 23.6881 43.5998 23.6869C43.58 23.6824 43.5601 23.6786 43.5398 23.6751C43.523 23.6721 43.5061 23.6695 43.4893 23.6674C43.4741 23.6655 43.4588 23.6643 43.4434 23.663C43.4213 23.6613 43.3993 23.6601 43.3774 23.6596C43.3723 23.6596 43.3674 23.6589 43.3625 23.6589H36.6367C36.3126 23.6589 36.0066 23.8082 35.807 24.0635C35.6073 24.3187 35.5364 24.6516 35.6146 24.9663L36.8716 30.0215Z" fill="url(#paint4_linear_6_11)"/>
<defs>
<linearGradient id="paint0_linear_6_11" x1="48.395" y1="73.23" x2="50.6364" y2="54.5364" gradientUnits="userSpaceOnUse">
<stop stop-color="#188DC1"/>
<stop offset="1" stop-color="#06BFE7"/>
</linearGradient>
<linearGradient id="paint1_linear_6_11" x1="30.9423" y1="73.1788" x2="33.3413" y2="40.4705" gradientUnits="userSpaceOnUse">
<stop stop-color="#188DC1"/>
<stop offset="1" stop-color="#06BFE7"/>
</linearGradient>
<linearGradient id="paint2_linear_6_11" x1="34.9618" y1="34.9288" x2="38.1875" y2="6.7501" gradientUnits="userSpaceOnUse">
<stop stop-color="#188DC1"/>
<stop offset="1" stop-color="#06BFE7"/>
</linearGradient>
<linearGradient id="paint3_linear_6_11" x1="37.5525" y1="39.2381" x2="37.5913" y2="37.0706" gradientUnits="userSpaceOnUse">
<stop stop-color="#188DC1"/>
<stop offset="1" stop-color="#06BFE7"/>
</linearGradient>
<linearGradient id="paint4_linear_6_11" x1="38.3261" y1="30.7938" x2="38.9769" y2="23.4797" gradientUnits="userSpaceOnUse">
<stop stop-color="#188DC1"/>
<stop offset="1" stop-color="#06BFE7"/>
</linearGradient>
</defs>
</svg>
