<svg width="81" height="81" viewBox="0 0 81 81" fill="none" xmlns="http://www.w3.org/2000/svg">
<path d="M67.9073 23.7824L64.3255 17.6489V9.72453C64.3255 9.2822 64.1218 8.8643 63.773 8.59213C63.4241 8.31981 62.969 8.22355 62.5404 8.33066L45.1573 12.6768C45.0226 12.635 38.8964 12.7158 36.2803 12.6768L18.8976 8.33066C18.4682 8.22355 18.0136 8.31981 17.6649 8.59213C17.3161 8.8643 17.1125 9.28204 17.1125 9.72453V17.6478L13.5299 23.7825C13.3652 24.0646 13.3015 24.3942 13.3494 24.7172L19.9605 69.3958C20.0648 70.1004 20.6694 70.6222 21.3817 70.6222H31.5175C32.311 70.6222 32.9541 69.9791 32.9541 69.1856C32.9541 68.392 32.311 67.7489 31.5175 67.7489H22.6213L16.2656 24.7957L18.6418 20.7267L29.1271 28.6422C29.7402 29.1053 30.6089 29.0039 31.099 28.4124L34.0964 24.7946L35.1833 25.9389L30.0307 60.8482C29.9717 61.2483 30.0839 61.6547 30.3401 61.9677L38.3701 71.7841C38.6429 72.1177 39.0513 72.3112 39.4821 72.3112H41.9568C42.3878 72.3112 42.7959 72.1177 43.0687 71.7841L51.0986 61.9677C51.3547 61.6547 51.467 61.2483 51.408 60.8482L46.2551 25.9389L47.3418 24.7947L50.3394 28.4124C50.8292 29.0038 51.6982 29.1053 52.3113 28.6422L62.7961 20.727L65.1723 24.7959L63.7499 34.4091H53.6116C53.5436 34.408 52.8775 34.4118 52.4476 34.9611C52.0125 35.517 52.1759 36.1611 52.1946 36.2287L53.5918 41.7668C53.8552 42.7855 54.6401 42.8786 55.0223 42.8814H62.4961L58.8159 67.7489H49.9204C49.1269 67.7489 48.4838 68.392 48.4838 69.1856C48.4838 69.9791 49.1269 70.6222 49.9204 70.6222H60.0556C60.7679 70.6222 61.3725 70.1004 61.4768 69.3958L68.0879 24.7172C68.1358 24.3942 68.0721 24.0645 67.9073 23.7824ZM32.7321 21.9374L29.7624 25.5218L19.9857 18.141V11.5645L34.8207 15.2735L32.7321 21.9374ZM37.7653 15.4858H43.6721L45.7929 22.2528L44.1143 24.0201H37.3235L35.6445 22.252L37.7653 15.4858ZM48.4724 60.6398L41.2757 69.4378H40.1627L32.9658 60.6398L37.9466 26.8934H39.2822V32.7716C39.2822 33.5651 39.9254 34.2083 40.7189 34.2083C41.5124 34.2083 42.1555 33.5651 42.1555 32.7716V26.8934H43.4911L48.4724 60.6398ZM61.4522 18.141L51.6755 25.5217L48.7053 21.9373L46.6168 15.2735L61.4522 11.5645V18.141ZM62.9208 40.0083H56.1111L55.4232 37.2824H63.3241L62.9208 40.0083Z" fill="url(#paint0_linear_6_2)"/>
<defs>
<linearGradient id="paint0_linear_6_2" x1="30.3404" y1="72.0699" x2="38.6578" y2="7.23456" gradientUnits="userSpaceOnUse">
<stop stop-color="#188DC1"/>
<stop offset="1" stop-color="#06BFE7"/>
</linearGradient>
</defs>
</svg>
