<svg width="80" height="80" viewBox="0 0 80 80" fill="none" xmlns="http://www.w3.org/2000/svg">
<path d="M68.8657 59.1303L55.1485 66.0552L42.0452 62.5442L42.9097 59.3179L55.656 62.7333C56.0527 62.8396 56.4619 62.7933 56.8236 62.6068L72.3205 54.6992C73.1243 54.291 73.4464 53.3003 73.0383 52.4965C72.6301 51.6927 71.6394 51.3705 70.8356 51.7787L55.8945 59.4102L43.7565 56.1578L44.6209 52.9316L55.8467 55.9395C56.2433 56.0458 56.6658 56.0031 57.0275 55.8166L74.4692 46.7861C75.0753 46.4808 75.4217 45.8226 75.3467 45.1506C75.2717 44.4786 74.7997 43.9128 74.1386 43.7356L27.5696 31.2575C27.173 31.1512 26.7505 31.1939 26.3888 31.3804L8.96038 40.4145C8.35424 40.7197 8.0078 41.378 8.08283 42.05C8.15785 42.722 8.62981 43.2878 9.29092 43.4649L22.5529 47.0185L21.6884 50.2447L8.42645 46.6912C7.55378 46.4573 6.64846 46.98 6.41463 47.8527C6.18079 48.7254 6.70348 49.6307 7.57615 49.8645L20.8381 53.4181L19.9737 56.6443L6.71169 53.0908C5.83901 52.8569 4.93369 53.3796 4.69986 54.2523C4.46603 55.125 4.98872 56.0303 5.86139 56.2641L20.71 60.2428L39.6179 65.3092L54.9162 69.4083C55.3128 69.5146 55.722 69.4683 56.0838 69.2818L70.3603 62.0675C71.1641 61.6594 71.4995 60.6722 71.0781 59.8649C70.6602 59.0443 69.6695 58.7222 68.8657 59.1303ZM54.8996 41.9676L41.7858 48.7565L28.7353 45.2597L41.8492 38.4707L54.8996 41.9676ZM56.0755 52.5996L46.4894 50.031L59.6032 43.2421L69.1894 45.8107L56.0755 52.5996ZM27.3443 34.5842L37.1288 37.2059L24.015 43.9949L14.2305 41.3731L27.3443 34.5842ZM23.1373 57.4778L25.713 47.8652L41.4476 52.0813L38.8719 61.6939L23.1373 57.4778Z" fill="url(#paint0_linear_4_1191)"/>
<path d="M44.1865 17.9745H46.9931C48.0632 17.9745 48.9361 18.8475 48.9361 19.9176C48.9361 20.9877 48.0632 21.8606 46.9931 21.8606H41.9618C41.3423 21.8606 40.8354 22.3675 40.8354 22.987C40.8354 23.6066 41.3423 24.1134 41.9618 24.1134H44.4681V25.9532C44.4681 26.5728 44.975 27.0796 45.5945 27.0796C46.214 27.0796 46.7209 26.5728 46.7209 25.9532V24.1134H47.0213C47.0306 24.1134 47.04 24.1134 47.0494 24.1134C49.3398 24.0853 51.189 22.2079 51.189 19.9176C51.189 17.5991 49.3022 15.7217 46.9931 15.7217H44.1865C43.1164 15.7217 42.2434 14.8488 42.2434 13.7787C42.2434 12.7086 43.1164 11.8356 44.1865 11.8356H49.1333C49.7528 11.8356 50.2597 11.3287 50.2597 10.7092C50.2597 10.0897 49.7528 9.58281 49.1333 9.58281H46.7209V7.77118C46.7209 7.15166 46.214 6.64478 45.5945 6.64478C44.975 6.64478 44.4681 7.15166 44.4681 7.77118V9.57343H44.1959C41.8773 9.57343 40 11.4602 40 13.7693C40 16.0784 41.868 17.9745 44.1865 17.9745Z" fill="url(#paint1_linear_4_1191)"/>
<defs>
<linearGradient id="paint0_linear_4_1191" x1="24.096" y1="61.0339" x2="33.4705" y2="31.8955" gradientUnits="userSpaceOnUse">
<stop stop-color="#188DC1"/>
<stop offset="1" stop-color="#06BFE7"/>
</linearGradient>
<linearGradient id="paint1_linear_4_1191" x1="43.4743" y1="27.0026" x2="47.5274" y2="6.78037" gradientUnits="userSpaceOnUse">
<stop stop-color="#188DC1"/>
<stop offset="1" stop-color="#06BFE7"/>
</linearGradient>
</defs>
</svg>
