<svg width="80" height="80" viewBox="0 0 80 80" fill="none" xmlns="http://www.w3.org/2000/svg">
<path d="M63.1455 10.8391C59.5833 10.8391 56.6863 13.7361 56.6863 17.2983C56.6863 18.4125 56.9694 19.4611 57.4679 20.3772L46.8866 30.9585C45.4279 29.8227 43.6021 29.1402 41.6148 29.1402C39.6275 29.1402 37.8017 29.8227 36.3419 30.9574L28.086 22.7015C28.4649 22.0609 28.6964 21.3246 28.6964 20.5279C28.6964 18.1531 26.7651 16.2218 24.3902 16.2218C22.0154 16.2218 20.0841 18.1531 20.0841 20.5279C20.0841 22.9028 22.0154 24.8341 24.3902 24.8341C25.1869 24.8341 25.9232 24.6026 26.5638 24.2237L34.8197 32.4796C33.685 33.9394 33.0025 35.7652 33.0025 37.7525C33.0025 39.7398 33.685 41.5656 34.8197 43.0243L21.1865 56.6586C20.0389 55.6176 18.522 54.9771 16.8545 54.9771C13.2922 54.9771 10.3953 57.874 10.3953 61.4363C10.3953 64.9986 13.2922 67.8955 16.8545 67.8955C20.4167 67.8955 23.3137 64.9986 23.3137 61.4363C23.3137 60.3221 23.0306 59.2735 22.5321 58.3574L36.343 44.5465C37.5337 45.4724 38.9698 46.0924 40.5393 46.2894V57.227C37.4895 57.7416 35.1567 60.3942 35.1567 63.5894C35.1567 67.1516 38.0536 70.0486 41.6159 70.0486C45.1781 70.0486 48.0751 67.1516 48.0751 63.5894C48.0751 60.3953 45.7422 57.7427 42.6924 57.227V46.2894C44.262 46.0924 45.6981 45.4724 46.8888 44.5465L55.1447 52.8025C54.7647 53.4441 54.5332 54.1804 54.5332 54.9771C54.5332 57.3519 56.4645 59.2832 58.8394 59.2832C61.2142 59.2832 63.1455 57.3519 63.1455 54.9771C63.1455 52.6022 61.2142 50.6709 58.8394 50.6709C58.0427 50.6709 57.3064 50.9024 56.6659 51.2813L48.4099 43.0254C49.5446 41.5656 50.2271 39.7398 50.2271 37.7525C50.2271 35.7652 49.5446 33.9394 48.4099 32.4807L58.8146 22.076C59.9611 23.117 61.478 23.7575 63.1455 23.7575C66.7078 23.7575 69.6047 20.8606 69.6047 17.2983C69.6047 13.7361 66.7078 10.8391 63.1455 10.8391ZM22.2372 20.5279C22.2372 19.3405 23.2028 18.3749 24.3902 18.3749C25.5776 18.3749 26.5433 19.3405 26.5433 20.5279C26.5433 21.7154 25.5776 22.681 24.3902 22.681C23.2028 22.681 22.2372 21.7154 22.2372 20.5279ZM16.8545 65.7424C14.4796 65.7424 12.5483 63.8111 12.5483 61.4363C12.5483 59.0615 14.4796 57.1302 16.8545 57.1302C19.2293 57.1302 21.1606 59.0615 21.1606 61.4363C21.1606 63.8111 19.2293 65.7424 16.8545 65.7424ZM45.9209 63.5894C45.9209 65.9642 43.9896 67.8955 41.6148 67.8955C39.24 67.8955 37.3087 65.9642 37.3087 63.5894C37.3087 61.2145 39.24 59.2832 41.6148 59.2832C43.9896 59.2832 45.9209 61.2145 45.9209 63.5894ZM41.6148 44.2117C38.0525 44.2117 35.1556 41.3148 35.1556 37.7525C35.1556 34.1903 38.0525 31.2933 41.6148 31.2933C45.1771 31.2933 48.074 34.1903 48.074 37.7525C48.074 41.3148 45.1771 44.2117 41.6148 44.2117ZM60.9925 54.9771C60.9925 56.1645 60.0268 57.1302 58.8394 57.1302C57.652 57.1302 56.6863 56.1645 56.6863 54.9771C56.6863 53.7897 57.652 52.824 58.8394 52.824C60.0268 52.824 60.9925 53.7897 60.9925 54.9771ZM63.1455 21.6045C60.7707 21.6045 58.8394 19.6732 58.8394 17.2983C58.8394 14.9235 60.7707 12.9922 63.1455 12.9922C65.5204 12.9922 67.4517 14.9235 67.4517 17.2983C67.4517 19.6732 65.5204 21.6045 63.1455 21.6045Z" fill="url(#paint0_linear_4_1169)"/>
<defs>
<linearGradient id="paint0_linear_4_1169" x1="28.7805" y1="69.8254" x2="35.3893" y2="9.60354" gradientUnits="userSpaceOnUse">
<stop stop-color="#188DC1"/>
<stop offset="1" stop-color="#06BFE7"/>
</linearGradient>
</defs>
</svg>
