<svg width="81" height="81" viewBox="0 0 81 81" fill="none" xmlns="http://www.w3.org/2000/svg">
<path d="M71.9836 7.60254H8.65158C7.91046 7.60254 7.31757 8.19543 7.31757 8.93655C7.31757 9.67767 7.91046 10.2706 8.65158 10.2706H11.1175V48.9435C11.1175 50.8974 12.7075 52.4874 14.6614 52.4874H66.2163C68.1702 52.4874 69.7602 50.8974 69.7602 48.9435V10.2706H71.9836C72.7247 10.2706 73.3176 9.67767 73.3176 8.93655C73.3176 8.19543 72.7247 7.60254 71.9836 7.60254ZM67.0922 48.9435C67.0922 49.4286 66.7014 49.8194 66.2163 49.8194H14.6614C14.1763 49.8194 13.7855 49.4286 13.7855 48.9435V10.2706H67.0922V48.9435Z" fill="url(#paint0_linear_4_1344)"/>
<path d="M42.4197 61.3V57.837H47.0685C47.8096 57.837 48.4025 57.2441 48.4025 56.503C48.4025 55.7618 47.8096 55.1689 47.0685 55.1689H34.9141C34.173 55.1689 33.5801 55.7618 33.5801 56.503C33.5801 57.2441 34.173 57.837 34.9141 57.837H39.7516V61.3L30.3327 70.719C29.8072 71.2445 29.8072 72.0799 30.3327 72.6054C30.5887 72.8615 30.939 72.9962 31.2759 72.9962C31.6128 72.9962 31.9631 72.8615 32.2192 72.6054L39.7516 65.073V71.6622C39.7516 72.4033 40.3445 72.9962 41.0856 72.9962C41.8268 72.9962 42.4197 72.4033 42.4197 71.6622V65.073L49.9117 72.565C50.1677 72.821 50.5181 72.9558 50.8549 72.9558C51.1918 72.9558 51.5422 72.821 51.7982 72.565C52.3237 72.0395 52.3237 71.2041 51.7982 70.6785L42.4197 61.3Z" fill="url(#paint1_linear_4_1344)"/>
<path d="M45.3571 27.1951H55.5442C56.2853 27.1951 56.8782 26.6022 56.8782 25.8611C56.8782 23.0449 55.8541 20.3364 53.9945 18.2343C51.8116 15.755 48.6585 14.3401 45.3571 14.3401C44.616 14.3401 44.0231 14.933 44.0231 15.6741V25.8611C44.0231 26.6022 44.616 27.1951 45.3571 27.1951ZM46.6912 17.1159C48.7259 17.4258 50.6124 18.4365 51.9868 19.9995C53.1187 21.2797 53.8463 22.8562 54.1024 24.5271H46.6912V17.1159Z" fill="url(#paint2_linear_4_1344)"/>
<path d="M39.6168 45.7366C47.4997 45.7366 53.9272 39.3225 53.9272 31.4263C53.9272 30.6851 53.3343 30.0922 52.5932 30.0922H40.9509V18.4634C40.9509 17.7223 40.358 17.1294 39.6168 17.1294C31.734 17.1294 25.3065 23.5434 25.3065 31.4397C25.3065 39.3225 31.7206 45.7366 39.6168 45.7366ZM38.2694 19.8648V31.4263C38.2694 32.1674 38.8623 32.7603 39.6034 32.7603H51.1648C50.5046 38.5545 45.5728 43.0686 39.6034 43.0686C33.1893 43.0686 27.9611 37.8538 27.9611 31.4263C27.9745 25.4704 32.4886 20.5385 38.2694 19.8648Z" fill="url(#paint3_linear_4_1344)"/>
<defs>
<linearGradient id="paint0_linear_4_1344" x1="27.8113" y1="52.3182" x2="31.2404" y2="6.37201" gradientUnits="userSpaceOnUse">
<stop stop-color="#188DC1"/>
<stop offset="1" stop-color="#06BFE7"/>
</linearGradient>
<linearGradient id="paint1_linear_4_1344" x1="36.8486" y1="72.929" x2="38.4495" y2="54.7193" gradientUnits="userSpaceOnUse">
<stop stop-color="#188DC1"/>
<stop offset="1" stop-color="#06BFE7"/>
</linearGradient>
<linearGradient id="paint2_linear_4_1344" x1="48.0148" y1="27.1467" x2="49.4496" y2="14.0718" gradientUnits="userSpaceOnUse">
<stop stop-color="#188DC1"/>
<stop offset="1" stop-color="#06BFE7"/>
</linearGradient>
<linearGradient id="paint3_linear_4_1344" x1="34.1936" y1="45.6288" x2="37.3852" y2="16.5321" gradientUnits="userSpaceOnUse">
<stop stop-color="#188DC1"/>
<stop offset="1" stop-color="#06BFE7"/>
</linearGradient>
</defs>
</svg>
